<svg xmlns="http://www.w3.org/2000/svg" xml:space="preserve" width="800" height="800" viewBox="0 0 512.001 512.001"><circle cx="256.004" cy="256.005" r="246.855" fill="#f7b239"/><path fill="#e09b2d" d="M126.306 385.694c-88.801-88.802-95.798-228.426-20.998-325.242-8.286 6.401-16.258 13.399-23.858 20.999-96.401 96.401-96.401 252.698 0 349.099s252.698 96.401 349.099 0c7.599-7.599 14.597-15.573 20.999-23.858-96.815 74.8-236.44 67.803-325.242-20.998z"/><path d="M256.001 512.001C114.841 512.001 0 397.16 0 256.001s114.841-256 256.001-256 256 114.841 256 255.999c-.001 141.16-114.841 256.001-256 256.001zm0-493.701c-131.069 0-237.702 106.632-237.702 237.702s106.632 237.702 237.702 237.702S493.702 387.07 493.702 256.001C493.701 124.932 387.068 18.3 256.001 18.3z"/><path d="M198.659 239.675c-3.115 0-6.15-1.591-7.863-4.459-8.265-13.834-22.821-22.094-38.937-22.094s-30.672 8.259-38.937 22.094c-2.59 4.338-8.208 5.753-12.547 3.162-4.338-2.592-5.753-8.209-3.162-12.547 11.6-19.417 32.028-31.007 54.646-31.007s43.046 11.592 54.646 31.007c2.591 4.338 1.176 9.956-3.162 12.547-1.47.88-3.089 1.297-4.684 1.297zm208.282 0c-3.115 0-6.15-1.591-7.863-4.459-8.265-13.834-22.821-22.094-38.938-22.094-16.115 0-30.671 8.26-38.936 22.094-2.591 4.338-8.209 5.753-12.547 3.162-4.338-2.591-5.753-8.209-3.162-12.547 11.6-19.415 32.028-31.007 54.645-31.007 22.618 0 43.046 11.591 54.647 31.007 2.591 4.338 1.176 9.955-3.162 12.547-1.469.88-3.087 1.297-4.684 1.297zm-150.94 134.521c-49.637 0-99.254-18.887-137.042-56.673-3.573-3.573-3.573-9.365 0-12.939 3.574-3.573 9.367-3.573 12.94 0 68.425 68.429 179.77 68.43 248.203 0 3.576-3.573 9.368-3.572 12.94 0 3.573 3.573 3.573 9.367 0 12.94-37.779 37.777-87.419 56.672-137.041 56.672z"/><path fill="#e09b2d" d="M256.001 409.692c-14.756 0-29.505-2.01-43.85-6.033-4.865-1.364-7.704-6.414-6.34-11.28 1.364-4.865 6.411-7.705 11.28-6.34 25.454 7.137 52.365 7.138 77.821 0 4.869-1.364 9.916 1.475 11.28 6.34 1.364 4.866-1.475 9.916-6.34 11.28-14.343 4.021-29.101 6.033-43.851 6.033z"/></svg>